# xmcd
#
# Track frame offsets: 
#        150
#        15803
#        29475
#        46138
#        67174
#        84532
#        101373
#        117442
#        134068
#        148771
#        165535
#        179517
#        194144
#
# Disc length: 2641 seconds
#
# Revision: 0
# Processed by: cddbd v1.5.2PL0 Copyright (c) Steve Scherf et al.
# Submitted via: ExactAudioCopyFreeDBPlugin 1.0
#
DISCID=bb0a4f0d
DTITLE=Band of Oz - Dance To The Radio
DYEAR=2010
DGENRE=Blues
TTITLE0=Dance To The Radio 
TTITLE1=This Love Is Real
TTITLE2=This Heart
TTITLE3=Build Me Up
TTITLE4=Heaven
TTITLE5=Are You Ready To Party
TTITLE6=Girl Like You
TTITLE7=She's Still In Love 
TTITLE8=Gonna Win You Back
TTITLE9=I Can't Think 
TTITLE10=I Will Never Get Used to Sharing You 
TTITLE11=She Shot A Hole In My Soul
TTITLE12=Quinten Warren - Do It Right
EXTD=
EXTT0=
EXTT1=
EXTT2=
EXTT3=
EXTT4=
EXTT5=
EXTT6=
EXTT7=
EXTT8=
EXTT9=
EXTT10=
EXTT11=
EXTT12=
PLAYORDER=
